<?xml version="1.0" standalone="no"?>
<!DOCTYPE svg PUBLIC "-//W3C//DTD SVG 20010904//EN"
 "http://www.w3.org/TR/2001/REC-SVG-20010904/DTD/svg10.dtd">
<svg version="1.0" xmlns="http://www.w3.org/2000/svg"
 width="762.000000pt" height="127.000000pt" viewBox="0 0 762.000000 127.000000"
 preserveAspectRatio="xMidYMid meet">

<g transform="translate(0.000000,127.000000) scale(0.100000,-0.100000)"
fill="#000000" stroke="none">
<path d="M0 635 l0 -635 3810 0 3810 0 0 635 0 635 -3810 0 -3810 0 0 -635z
m2790 531 c149 -27 282 -99 546 -297 162 -120 294 -206 347 -225 80 -28 157
-13 183 37 19 38 18 62 -6 92 -27 34 -83 32 -88 -4 -8 -50 -54 -68 -68 -27 -7
23 16 48 45 48 8 0 23 8 33 17 18 16 21 16 56 -2 50 -27 66 -63 52 -114 -14
-53 -57 -83 -125 -89 -44 -4 -80 6 -246 63 -107 37 -234 80 -284 96 -284 92
-547 131 -740 110 -267 -30 -418 -119 -419 -248 l-1 -48 84 0 c59 0 86 4 89
13 2 7 -5 12 -16 12 -31 0 -64 32 -56 53 11 29 47 17 66 -22 31 -63 11 -60
413 -62 553 -3 654 -12 240 -21 -187 -5 -406 -8 -487 -8 -96 0 -148 -4 -148
-10 0 -6 -11 -22 -25 -35 -40 -41 -137 -27 -164 24 -10 17 -41 18 -623 23
-337 3 -617 2 -623 -2 -21 -15 -55 -17 -72 -4 -26 19 -73 17 -118 -6 -63 -32
-105 -22 -105 25 0 29 19 45 52 45 31 0 78 -19 78 -32 0 -16 78 -9 84 8 5 13
13 15 39 9 45 -11 747 -18 1023 -10 l231 7 6 87 c13 199 117 355 292 442 131
65 292 84 455 55z m2678 -2 c201 -41 362 -175 420 -350 11 -33 23 -97 26 -143
3 -47 8 -87 11 -89 2 -3 267 -8 587 -11 466 -6 590 -4 617 6 44 17 78 16 85
-2 8 -21 59 -19 98 5 61 37 124 20 116 -32 -5 -38 -51 -47 -101 -20 -48 25
-99 29 -117 7 -12 -15 -52 -12 -75 5 -5 4 -286 5 -623 2 -582 -5 -613 -6 -623
-23 -14 -27 -62 -49 -105 -49 -29 0 -44 7 -70 35 l-33 35 -138 0 c-76 0 -291
3 -478 8 -421 9 -305 19 244 21 324 1 366 3 383 18 10 9 18 23 18 32 1 41 60
70 74 36 7 -20 -28 -55 -55 -55 -12 0 -19 -5 -16 -12 2 -9 29 -13 88 -13 l84
0 3 28 c6 51 -43 134 -102 172 -103 68 -334 113 -516 100 -234 -17 -365 -50
-873 -224 -156 -53 -205 -60 -262 -37 -39 17 -75 68 -75 108 0 57 83 116 119
85 9 -8 28 -17 42 -21 43 -10 50 -66 8 -66 -20 0 -52 40 -47 60 5 21 -55 19
-79 -3 -41 -37 -27 -104 27 -132 81 -42 187 0 410 165 284 209 318 232 425
285 164 81 331 104 503 69z m-1559 -828 c-38 -102 -105 -154 -181 -139 -45 9
-88 58 -88 99 0 40 37 84 70 84 l21 0 -20 -26 c-12 -15 -21 -31 -21 -37 0 -22
34 -47 64 -47 26 0 43 13 101 74 39 41 71 69 73 62 2 -7 -7 -39 -19 -70z m123
-81 c14 -97 5 -166 -27 -203 -23 -26 -23 -26 -44 -8 -33 30 -44 81 -37 170 3
45 12 106 21 136 8 32 12 41 10 20 -14 -109 -16 -256 -3 -279 20 -37 37 -36
53 3 21 51 18 148 -10 305 -3 14 2 6 10 -19 8 -25 20 -81 27 -125z m54 105
c27 -33 63 -67 80 -76 37 -20 79 -13 95 17 9 18 7 27 -10 50 l-22 29 21 0 c31
0 70 -44 70 -79 0 -39 -42 -88 -86 -100 -76 -21 -144 28 -183 134 -20 52 -26
85 -17 85 2 0 26 -27 52 -60z"/>
<path d="M2455 1111 c-145 -36 -277 -135 -343 -259 -42 -79 -40 -84 7 -25 56
71 116 120 196 158 103 50 174 66 297 66 188 0 325 -37 563 -155 83 -40 151
-72 153 -71 2 2 -59 45 -135 96 -166 110 -292 173 -391 194 -97 20 -258 18
-347 -4z"/>
<path d="M2455 995 c-122 -27 -212 -73 -297 -153 -60 -56 -90 -102 -38 -59 51
44 142 85 238 110 75 19 113 22 277 21 210 0 293 -13 514 -80 63 -19 116 -33
118 -31 6 7 -246 117 -336 147 -168 57 -347 74 -476 45z"/>
<path d="M2110 515 c36 -38 118 -32 134 10 4 13 -7 15 -76 15 l-81 0 23 -25z"/>
<path d="M5150 1115 c-85 -19 -237 -95 -380 -191 -149 -100 -166 -118 -57 -60
171 90 338 153 468 176 88 16 262 13 334 -5 132 -35 266 -124 344 -230 l22
-30 -15 37 c-35 89 -136 199 -226 247 -125 67 -328 90 -490 56z"/>
<path d="M5202 995 c-134 -24 -330 -95 -467 -169 -56 -30 -47 -29 75 9 210 65
300 79 510 79 169 1 207 -2 282 -21 106 -27 195 -71 244 -119 27 -28 33 -31
24 -13 -28 53 -129 138 -212 178 -138 68 -287 87 -456 56z"/>
<path d="M5710 532 c0 -37 87 -55 128 -26 37 26 25 34 -53 34 -41 0 -75 -4
-75 -8z"/>
</g>
</svg>
